<?xml version="1.0"?>
<!-- Generated by SVGo -->
<svg width="1060" height="510"
     xmlns="http://www.w3.org/2000/svg"
     xmlns:xlink="http://www.w3.org/1999/xlink">
<rect x="0" y="0" width="1060" height="510" rx="5" ry="5" style="fill:#282d35" />
<circle cx="20" cy="20" r="7" style="fill:#ff5f58" />
<circle cx="43" cy="20" r="7" style="fill:#ffbd2e" />
<circle cx="66" cy="20" r="7" style="fill:#18c132" />
<g transform="translate(20,60)" >
<g style="animation-duration:10.47s;animation-iteration-count:infinite;animation-name:k;animation-timing-function:steps(1,end);font-family:Monaco,Consolas,Menlo,'Bitstream Vera Sans Mono','Powerline Symbols',monospace;font-size:20px">
<style type="text/css">
<![CDATA[
@keyframes k {4.169%{transform:translateX(-0px)}12.795%{transform:translateX(-1060px)}14.717%{transform:translateX(-2120px)}17.377%{transform:translateX(-3180px)}18.825%{transform:translateX(-4240px)}19.248%{transform:translateX(-5300px)}20.884%{transform:translateX(-6360px)}24.999%{transform:translateX(-7420px)}27.839%{transform:translateX(-8480px)}28.586%{transform:translateX(-9540px)}29.103%{transform:translateX(-10600px)}30.252%{transform:translateX(-11660px)}31.973%{transform:translateX(-12720px)}33.825%{transform:translateX(-13780px)}34.596%{transform:translateX(-14840px)}35.923%{transform:translateX(-15900px)}37.147%{transform:translateX(-16960px)}38.151%{transform:translateX(-18020px)}39.286%{transform:translateX(-19080px)}41.066%{transform:translateX(-20140px)}41.853%{transform:translateX(-21200px)}50.043%{transform:translateX(-22260px)}66.067%{transform:translateX(-23320px)}66.341%{transform:translateX(-24380px)}80.059%{transform:translateX(-25440px)}82.680%{transform:translateX(-26500px)}84.758%{transform:translateX(-27560px)}86.745%{transform:translateX(-28620px)}99.998%{transform:translateX(-29680px)}100.000%{transform:translateX(-30740px)}}.a{fill:#00cd00}.b{fill:#e5e5e5}.c{fill:#5c5cff}.d{fill:#00cdcd}.e{fill:#ff0000}.f{fill:#cdcd00}
]]>
</style>
<g transform="translate(0)">
<text x="0" y="0" class="a"  >@sharknoon</text>
<text x="132" y="0" class="b"  >➜</text>
<text x="156" y="0" class="c"  >~/umbrel-apps</text>
<text x="324" y="0" class="d"  >(</text>
<text x="336" y="0" class="e"  >master</text>
<text x="408" y="0" class="d"  >)</text>
<text x="432" y="0" class="b"  >$</text>
</g>
<g transform="translate(1060)">
<text x="0" y="0" class="a"  >@sharknoon</text>
<text x="132" y="0" class="b"  >➜</text>
<text x="156" y="0" class="c"  >~/umbrel-apps</text>
<text x="324" y="0" class="d"  >(</text>
<text x="336" y="0" class="e"  >master</text>
<text x="408" y="0" class="d"  >)</text>
<text x="432" y="0" class="b"  >$</text>
<text x="456" y="0" class="b"  >u</text>
</g>
<g transform="translate(2120)">
<text x="0" y="0" class="a"  >@sharknoon</text>
<text x="132" y="0" class="b"  >➜</text>
<text x="156" y="0" class="c"  >~/umbrel-apps</text>
<text x="324" y="0" class="d"  >(</text>
<text x="336" y="0" class="e"  >master</text>
<text x="408" y="0" class="d"  >)</text>
<text x="432" y="0" class="b"  >$</text>
<text x="456" y="0" class="b"  >um</text>
</g>
<g transform="translate(3180)">
<text x="0" y="0" class="a"  >@sharknoon</text>
<text x="132" y="0" class="b"  >➜</text>
<text x="156" y="0" class="c"  >~/umbrel-apps</text>
<text x="324" y="0" class="d"  >(</text>
<text x="336" y="0" class="e"  >master</text>
<text x="408" y="0" class="d"  >)</text>
<text x="432" y="0" class="b"  >$</text>
<text x="456" y="0" class="b"  >umb</text>
</g>
<g transform="translate(4240)">
<text x="0" y="0" class="a"  >@sharknoon</text>
<text x="132" y="0" class="b"  >➜</text>
<text x="156" y="0" class="c"  >~/umbrel-apps</text>
<text x="324" y="0" class="d"  >(</text>
<text x="336" y="0" class="e"  >master</text>
<text x="408" y="0" class="d"  >)</text>
<text x="432" y="0" class="b"  >$</text>
<text x="456" y="0" class="b"  >umbr</text>
</g>
<g transform="translate(5300)">
<text x="0" y="0" class="a"  >@sharknoon</text>
<text x="132" y="0" class="b"  >➜</text>
<text x="156" y="0" class="c"  >~/umbrel-apps</text>
<text x="324" y="0" class="d"  >(</text>
<text x="336" y="0" class="e"  >master</text>
<text x="408" y="0" class="d"  >)</text>
<text x="432" y="0" class="b"  >$</text>
<text x="456" y="0" class="b"  >umbre</text>
</g>
<g transform="translate(6360)">
<text x="0" y="0" class="a"  >@sharknoon</text>
<text x="132" y="0" class="b"  >➜</text>
<text x="156" y="0" class="c"  >~/umbrel-apps</text>
<text x="324" y="0" class="d"  >(</text>
<text x="336" y="0" class="e"  >master</text>
<text x="408" y="0" class="d"  >)</text>
<text x="432" y="0" class="b"  >$</text>
<text x="456" y="0" class="b"  >umbrel</text>
</g>
<g transform="translate(7420)">
<text x="0" y="0" class="a"  >@sharknoon</text>
<text x="132" y="0" class="b"  >➜</text>
<text x="156" y="0" class="c"  >~/umbrel-apps</text>
<text x="324" y="0" class="d"  >(</text>
<text x="336" y="0" class="e"  >master</text>
<text x="408" y="0" class="d"  >)</text>
<text x="432" y="0" class="b"  >$</text>
<text x="456" y="0" class="b"  >umbrel</text>
</g>
<g transform="translate(8480)">
<text x="0" y="0" class="a"  >@sharknoon</text>
<text x="132" y="0" class="b"  >➜</text>
<text x="156" y="0" class="c"  >~/umbrel-apps</text>
<text x="324" y="0" class="d"  >(</text>
<text x="336" y="0" class="e"  >master</text>
<text x="408" y="0" class="d"  >)</text>
<text x="432" y="0" class="b"  >$</text>
<text x="456" y="0" class="b"  >umbrel</text>
<text x="540" y="0" class="b"  >p</text>
</g>
<g transform="translate(9540)">
<text x="0" y="0" class="a"  >@sharknoon</text>
<text x="132" y="0" class="b"  >➜</text>
<text x="156" y="0" class="c"  >~/umbrel-apps</text>
<text x="324" y="0" class="d"  >(</text>
<text x="336" y="0" class="e"  >master</text>
<text x="408" y="0" class="d"  >)</text>
<text x="432" y="0" class="b"  >$</text>
<text x="456" y="0" class="b"  >umbrel</text>
<text x="540" y="0" class="b"  >po</text>
</g>
<g transform="translate(10600)">
<text x="0" y="0" class="a"  >@sharknoon</text>
<text x="132" y="0" class="b"  >➜</text>
<text x="156" y="0" class="c"  >~/umbrel-apps</text>
<text x="324" y="0" class="d"  >(</text>
<text x="336" y="0" class="e"  >master</text>
<text x="408" y="0" class="d"  >)</text>
<text x="432" y="0" class="b"  >$</text>
<text x="456" y="0" class="b"  >umbrel</text>
<text x="540" y="0" class="b"  >por</text>
</g>
<g transform="translate(11660)">
<text x="0" y="0" class="a"  >@sharknoon</text>
<text x="132" y="0" class="b"  >➜</text>
<text x="156" y="0" class="c"  >~/umbrel-apps</text>
<text x="324" y="0" class="d"  >(</text>
<text x="336" y="0" class="e"  >master</text>
<text x="408" y="0" class="d"  >)</text>
<text x="432" y="0" class="b"  >$</text>
<text x="456" y="0" class="b"  >umbrel</text>
<text x="540" y="0" class="b"  >port</text>
</g>
<g transform="translate(12720)">
<text x="0" y="0" class="a"  >@sharknoon</text>
<text x="132" y="0" class="b"  >➜</text>
<text x="156" y="0" class="c"  >~/umbrel-apps</text>
<text x="324" y="0" class="d"  >(</text>
<text x="336" y="0" class="e"  >master</text>
<text x="408" y="0" class="d"  >)</text>
<text x="432" y="0" class="b"  >$</text>
<text x="456" y="0" class="b"  >umbrel</text>
<text x="540" y="0" class="b"  >port</text>
</g>
<g transform="translate(13780)">
<text x="0" y="0" class="a"  >@sharknoon</text>
<text x="132" y="0" class="b"  >➜</text>
<text x="156" y="0" class="c"  >~/umbrel-apps</text>
<text x="324" y="0" class="d"  >(</text>
<text x="336" y="0" class="e"  >master</text>
<text x="408" y="0" class="d"  >)</text>
<text x="432" y="0" class="b"  >$</text>
<text x="456" y="0" class="b"  >umbrel</text>
<text x="540" y="0" class="b"  >port</text>
<text x="600" y="0" class="b"  >g</text>
</g>
<g transform="translate(14840)">
<text x="0" y="0" class="a"  >@sharknoon</text>
<text x="132" y="0" class="b"  >➜</text>
<text x="156" y="0" class="c"  >~/umbrel-apps</text>
<text x="324" y="0" class="d"  >(</text>
<text x="336" y="0" class="e"  >master</text>
<text x="408" y="0" class="d"  >)</text>
<text x="432" y="0" class="b"  >$</text>
<text x="456" y="0" class="b"  >umbrel</text>
<text x="540" y="0" class="b"  >port</text>
<text x="600" y="0" class="b"  >ge</text>
</g>
<g transform="translate(15900)">
<text x="0" y="0" class="a"  >@sharknoon</text>
<text x="132" y="0" class="b"  >➜</text>
<text x="156" y="0" class="c"  >~/umbrel-apps</text>
<text x="324" y="0" class="d"  >(</text>
<text x="336" y="0" class="e"  >master</text>
<text x="408" y="0" class="d"  >)</text>
<text x="432" y="0" class="b"  >$</text>
<text x="456" y="0" class="b"  >umbrel</text>
<text x="540" y="0" class="b"  >port</text>
<text x="600" y="0" class="b"  >gen</text>
</g>
<g transform="translate(16960)">
<text x="0" y="0" class="a"  >@sharknoon</text>
<text x="132" y="0" class="b"  >➜</text>
<text x="156" y="0" class="c"  >~/umbrel-apps</text>
<text x="324" y="0" class="d"  >(</text>
<text x="336" y="0" class="e"  >master</text>
<text x="408" y="0" class="d"  >)</text>
<text x="432" y="0" class="b"  >$</text>
<text x="456" y="0" class="b"  >umbrel</text>
<text x="540" y="0" class="b"  >port</text>
<text x="600" y="0" class="b"  >gene</text>
</g>
<g transform="translate(18020)">
<text x="0" y="0" class="a"  >@sharknoon</text>
<text x="132" y="0" class="b"  >➜</text>
<text x="156" y="0" class="c"  >~/umbrel-apps</text>
<text x="324" y="0" class="d"  >(</text>
<text x="336" y="0" class="e"  >master</text>
<text x="408" y="0" class="d"  >)</text>
<text x="432" y="0" class="b"  >$</text>
<text x="456" y="0" class="b"  >umbrel</text>
<text x="540" y="0" class="b"  >port</text>
<text x="600" y="0" class="b"  >gener</text>
</g>
<g transform="translate(19080)">
<text x="0" y="0" class="a"  >@sharknoon</text>
<text x="132" y="0" class="b"  >➜</text>
<text x="156" y="0" class="c"  >~/umbrel-apps</text>
<text x="324" y="0" class="d"  >(</text>
<text x="336" y="0" class="e"  >master</text>
<text x="408" y="0" class="d"  >)</text>
<text x="432" y="0" class="b"  >$</text>
<text x="456" y="0" class="b"  >umbrel</text>
<text x="540" y="0" class="b"  >port</text>
<text x="600" y="0" class="b"  >genera</text>
</g>
<g transform="translate(20140)">
<text x="0" y="0" class="a"  >@sharknoon</text>
<text x="132" y="0" class="b"  >➜</text>
<text x="156" y="0" class="c"  >~/umbrel-apps</text>
<text x="324" y="0" class="d"  >(</text>
<text x="336" y="0" class="e"  >master</text>
<text x="408" y="0" class="d"  >)</text>
<text x="432" y="0" class="b"  >$</text>
<text x="456" y="0" class="b"  >umbrel</text>
<text x="540" y="0" class="b"  >port</text>
<text x="600" y="0" class="b"  >generat</text>
</g>
<g transform="translate(21200)">
<text x="0" y="0" class="a"  >@sharknoon</text>
<text x="132" y="0" class="b"  >➜</text>
<text x="156" y="0" class="c"  >~/umbrel-apps</text>
<text x="324" y="0" class="d"  >(</text>
<text x="336" y="0" class="e"  >master</text>
<text x="408" y="0" class="d"  >)</text>
<text x="432" y="0" class="b"  >$</text>
<text x="456" y="0" class="b"  >umbrel</text>
<text x="540" y="0" class="b"  >port</text>
<text x="600" y="0" class="b"  >generate</text>
</g>
<g transform="translate(22260)">
<text x="0" y="0" class="a"  >@sharknoon</text>
<text x="132" y="0" class="b"  >➜</text>
<text x="156" y="0" class="c"  >~/umbrel-apps</text>
<text x="324" y="0" class="d"  >(</text>
<text x="336" y="0" class="e"  >master</text>
<text x="408" y="0" class="d"  >)</text>
<text x="432" y="0" class="b"  >$</text>
<text x="456" y="0" class="b"  >umbrel</text>
<text x="540" y="0" class="b"  >port</text>
<text x="600" y="0" class="b"  >generate</text>
</g>
<g transform="translate(23320)">
<text x="0" y="0" class="a"  >@sharknoon</text>
<text x="132" y="0" class="b"  >➜</text>
<text x="156" y="0" class="c"  >~/umbrel-apps</text>
<text x="324" y="0" class="d"  >(</text>
<text x="336" y="0" class="e"  >master</text>
<text x="408" y="0" class="d"  >)</text>
<text x="432" y="0" class="b"  >$</text>
<text x="456" y="0" class="b"  >umbrel</text>
<text x="540" y="0" class="b"  >port</text>
<text x="600" y="0" class="b"  >generate</text>
<text x="0" y="25" class="f"  >61844</text>
</g>
<g transform="translate(24380)">
<text x="0" y="0" class="a"  >@sharknoon</text>
<text x="132" y="0" class="b"  >➜</text>
<text x="156" y="0" class="c"  >~/umbrel-apps</text>
<text x="324" y="0" class="d"  >(</text>
<text x="336" y="0" class="e"  >master</text>
<text x="408" y="0" class="d"  >)</text>
<text x="432" y="0" class="b"  >$</text>
<text x="456" y="0" class="b"  >umbrel</text>
<text x="540" y="0" class="b"  >port</text>
<text x="600" y="0" class="b"  >generate</text>
<text x="0" y="25" class="f"  >61844</text>
<text x="0" y="50" class="a"  >@sharknoon</text>
<text x="132" y="50" class="b"  >➜</text>
<text x="156" y="50" class="c"  >~/umbrel-apps</text>
<text x="324" y="50" class="d"  >(</text>
<text x="336" y="50" class="e"  >master</text>
<text x="408" y="50" class="d"  >)</text>
<text x="432" y="50" class="b"  >$</text>
</g>
<g transform="translate(25440)">
<text x="0" y="0" class="a"  >@sharknoon</text>
<text x="132" y="0" class="b"  >➜</text>
<text x="156" y="0" class="c"  >~/umbrel-apps</text>
<text x="324" y="0" class="d"  >(</text>
<text x="336" y="0" class="e"  >master</text>
<text x="408" y="0" class="d"  >)</text>
<text x="432" y="0" class="b"  >$</text>
<text x="456" y="0" class="b"  >umbrel</text>
<text x="540" y="0" class="b"  >port</text>
<text x="600" y="0" class="b"  >generate</text>
<text x="0" y="25" class="f"  >61844</text>
<text x="0" y="50" class="a"  >@sharknoon</text>
<text x="132" y="50" class="b"  >➜</text>
<text x="156" y="50" class="c"  >~/umbrel-apps</text>
<text x="324" y="50" class="d"  >(</text>
<text x="336" y="50" class="e"  >master</text>
<text x="408" y="50" class="d"  >)</text>
<text x="432" y="50" class="b"  >$</text>
<text x="456" y="50" class="b"  >e</text>
</g>
<g transform="translate(26500)">
<text x="0" y="0" class="a"  >@sharknoon</text>
<text x="132" y="0" class="b"  >➜</text>
<text x="156" y="0" class="c"  >~/umbrel-apps</text>
<text x="324" y="0" class="d"  >(</text>
<text x="336" y="0" class="e"  >master</text>
<text x="408" y="0" class="d"  >)</text>
<text x="432" y="0" class="b"  >$</text>
<text x="456" y="0" class="b"  >umbrel</text>
<text x="540" y="0" class="b"  >port</text>
<text x="600" y="0" class="b"  >generate</text>
<text x="0" y="25" class="f"  >61844</text>
<text x="0" y="50" class="a"  >@sharknoon</text>
<text x="132" y="50" class="b"  >➜</text>
<text x="156" y="50" class="c"  >~/umbrel-apps</text>
<text x="324" y="50" class="d"  >(</text>
<text x="336" y="50" class="e"  >master</text>
<text x="408" y="50" class="d"  >)</text>
<text x="432" y="50" class="b"  >$</text>
<text x="456" y="50" class="b"  >ex</text>
</g>
<g transform="translate(27560)">
<text x="0" y="0" class="a"  >@sharknoon</text>
<text x="132" y="0" class="b"  >➜</text>
<text x="156" y="0" class="c"  >~/umbrel-apps</text>
<text x="324" y="0" class="d"  >(</text>
<text x="336" y="0" class="e"  >master</text>
<text x="408" y="0" class="d"  >)</text>
<text x="432" y="0" class="b"  >$</text>
<text x="456" y="0" class="b"  >umbrel</text>
<text x="540" y="0" class="b"  >port</text>
<text x="600" y="0" class="b"  >generate</text>
<text x="0" y="25" class="f"  >61844</text>
<text x="0" y="50" class="a"  >@sharknoon</text>
<text x="132" y="50" class="b"  >➜</text>
<text x="156" y="50" class="c"  >~/umbrel-apps</text>
<text x="324" y="50" class="d"  >(</text>
<text x="336" y="50" class="e"  >master</text>
<text x="408" y="50" class="d"  >)</text>
<text x="432" y="50" class="b"  >$</text>
<text x="456" y="50" class="b"  >exi</text>
</g>
<g transform="translate(28620)">
<text x="0" y="0" class="a"  >@sharknoon</text>
<text x="132" y="0" class="b"  >➜</text>
<text x="156" y="0" class="c"  >~/umbrel-apps</text>
<text x="324" y="0" class="d"  >(</text>
<text x="336" y="0" class="e"  >master</text>
<text x="408" y="0" class="d"  >)</text>
<text x="432" y="0" class="b"  >$</text>
<text x="456" y="0" class="b"  >umbrel</text>
<text x="540" y="0" class="b"  >port</text>
<text x="600" y="0" class="b"  >generate</text>
<text x="0" y="25" class="f"  >61844</text>
<text x="0" y="50" class="a"  >@sharknoon</text>
<text x="132" y="50" class="b"  >➜</text>
<text x="156" y="50" class="c"  >~/umbrel-apps</text>
<text x="324" y="50" class="d"  >(</text>
<text x="336" y="50" class="e"  >master</text>
<text x="408" y="50" class="d"  >)</text>
<text x="432" y="50" class="b"  >$</text>
<text x="456" y="50" class="b"  >exit</text>
</g>
<g transform="translate(29680)">
<text x="0" y="0" class="a"  >@sharknoon</text>
<text x="132" y="0" class="b"  >➜</text>
<text x="156" y="0" class="c"  >~/umbrel-apps</text>
<text x="324" y="0" class="d"  >(</text>
<text x="336" y="0" class="e"  >master</text>
<text x="408" y="0" class="d"  >)</text>
<text x="432" y="0" class="b"  >$</text>
<text x="456" y="0" class="b"  >umbrel</text>
<text x="540" y="0" class="b"  >port</text>
<text x="600" y="0" class="b"  >generate</text>
<text x="0" y="25" class="f"  >61844</text>
<text x="0" y="50" class="a"  >@sharknoon</text>
<text x="132" y="50" class="b"  >➜</text>
<text x="156" y="50" class="c"  >~/umbrel-apps</text>
<text x="324" y="50" class="d"  >(</text>
<text x="336" y="50" class="e"  >master</text>
<text x="408" y="50" class="d"  >)</text>
<text x="432" y="50" class="b"  >$</text>
<text x="456" y="50" class="b"  >exit</text>
</g>
<g transform="translate(30740)">
<text x="0" y="0" class="a"  >@sharknoon</text>
<text x="132" y="0" class="b"  >➜</text>
<text x="156" y="0" class="c"  >~/umbrel-apps</text>
<text x="324" y="0" class="d"  >(</text>
<text x="336" y="0" class="e"  >master</text>
<text x="408" y="0" class="d"  >)</text>
<text x="432" y="0" class="b"  >$</text>
<text x="456" y="0" class="b"  >umbrel</text>
<text x="540" y="0" class="b"  >port</text>
<text x="600" y="0" class="b"  >generate</text>
<text x="0" y="25" class="f"  >61844</text>
<text x="0" y="50" class="a"  >@sharknoon</text>
<text x="132" y="50" class="b"  >➜</text>
<text x="156" y="50" class="c"  >~/umbrel-apps</text>
<text x="324" y="50" class="d"  >(</text>
<text x="336" y="50" class="e"  >master</text>
<text x="408" y="50" class="d"  >)</text>
<text x="432" y="50" class="b"  >$</text>
<text x="456" y="50" class="b"  >exit</text>
<text x="0" y="75" class="b"  >exit</text>
</g>
</g>
</g>
</svg>
